<?xml version="1.0" encoding="utf-8" ?>
<svg xmlns="http://www.w3.org/2000/svg" xmlns:xlink="http://www.w3.org/1999/xlink" width="200" height="200">
	<path fill="#0080F5" transform="matrix(0.3125 0 0 0.3125 6.10352e-05 0)" d="M310.485 85.0363C320.987 85.0347 331.13 84.7868 341.562 85.9138L347.969 86.5055C464.586 99.6033 554.639 199.59 555.568 317.283C555.967 367.796 542.701 411.848 513.998 453.905C472.568 514.611 404.379 552.147 330.787 555.258C300.211 555.365 276.904 553.746 246.992 544.143C146.064 511.741 78.8615 411.548 85.2615 306.498C92.5389 187.047 189.921 88.9881 310.485 85.0363Z"/>
	<path fill="white" transform="matrix(0.3125 0 0 0.3125 6.10352e-05 0)" d="M318.966 199.187L320.046 199.115C338.982 198.727 349.73 214.037 349.754 231.596L349.853 290.04C350.737 290.397 351.815 290.245 352.762 290.245L395.971 290.228C413.792 290.224 428.802 288.585 437.997 308.724C447.662 329.888 430.554 350.262 408.23 350.307L349.907 350.487C349.234 355.793 349.771 361.84 349.773 367.221L349.79 402.65C349.792 407.55 350.404 413.387 349.417 418.141C346.868 430.42 334.569 440.011 322.489 441.259C302.171 441.801 290.719 428.484 290.794 409.289L290.753 350.482C286.951 349.828 282.237 350.349 278.351 350.347L233.965 350.32C229.834 350.307 225.332 350.495 221.357 349.182C192.62 339.689 193.06 300.137 220.538 291.888C228.83 289.399 237.927 290.253 246.507 290.25L290.658 290.096L290.851 231.226C290.922 213.768 300.813 201.282 318.966 199.187Z"/>
</svg>
