<svg xmlns="http://www.w3.org/2000/svg" xmlns:xlink="http://www.w3.org/1999/xlink" width="40" zoomAndPan="magnify" viewBox="0 0 30 30.000001" height="40" preserveAspectRatio="xMidYMid meet" version="1.0"><defs><g/><clipPath id="48c11a321d"><path d="M 11.554688 9 L 17.875 9 L 17.875 15.796875 L 11.554688 15.796875 Z M 11.554688 9 " clip-rule="nonzero"/></clipPath><clipPath id="62a22b79cc"><path d="M 17.71875 11.53125 C 16.847656 14.925781 16.453125 15.085938 15.980469 15.320312 C 15.585938 15.480469 15.109375 15.71875 14.558594 15.636719 C 13.847656 15.480469 12.503906 14.769531 12.03125 14.136719 C 11.714844 13.664062 11.554688 13.1875 11.554688 12.636719 C 11.632812 11.84375 12.03125 10.582031 12.742188 10.027344 C 13.453125 9.476562 14.875 9.316406 15.664062 9.476562 C 16.21875 9.554688 16.929688 10.265625 16.929688 10.265625 " clip-rule="nonzero"/></clipPath><clipPath id="24ed7b64c5"><path d="M 3 0 L 27 0 L 27 27.503906 L 3 27.503906 Z M 3 0 " clip-rule="nonzero"/></clipPath></defs><g clip-path="url(#48c11a321d)"><g clip-path="url(#62a22b79cc)"><path fill="#23f800" d="M 8.394531 6.316406 L 21.035156 6.316406 L 21.035156 18.957031 L 8.394531 18.957031 Z M 8.394531 6.316406 " fill-opacity="1" fill-rule="nonzero"/></g></g><path fill="#23f800" d="M 14.964844 17.628906 C 14.621094 17.628906 14.277344 17.59375 13.9375 17.527344 C 13.597656 17.457031 13.269531 17.355469 12.949219 17.222656 C 12.632812 17.089844 12.328125 16.925781 12.039062 16.734375 C 11.753906 16.539062 11.488281 16.320312 11.242188 16.074219 C 10.996094 15.828125 10.78125 15.558594 10.585938 15.269531 C 10.394531 14.980469 10.234375 14.675781 10.101562 14.351562 C 9.96875 14.03125 9.867188 13.699219 9.800781 13.359375 C 9.734375 13.015625 9.699219 12.671875 9.699219 12.324219 C 9.699219 11.976562 9.734375 11.632812 9.800781 11.289062 C 9.867188 10.949219 9.96875 10.617188 10.101562 10.292969 C 10.234375 9.972656 10.394531 9.667969 10.585938 9.378906 C 10.78125 9.089844 10.996094 8.820312 11.242188 8.574219 C 11.488281 8.328125 11.753906 8.109375 12.039062 7.914062 C 12.328125 7.722656 12.632812 7.558594 12.949219 7.425781 C 13.269531 7.292969 13.597656 7.191406 13.9375 7.121094 C 14.277344 7.054688 14.621094 7.019531 14.964844 7.019531 C 15.3125 7.019531 15.652344 7.054688 15.992188 7.121094 C 16.332031 7.191406 16.660156 7.292969 16.980469 7.425781 C 17.300781 7.558594 17.601562 7.722656 17.890625 7.914062 C 18.179688 8.109375 18.445312 8.328125 18.6875 8.574219 C 18.933594 8.820312 19.152344 9.089844 19.34375 9.378906 C 19.535156 9.667969 19.699219 9.972656 19.832031 10.292969 C 19.960938 10.617188 20.0625 10.949219 20.128906 11.289062 C 20.199219 11.632812 20.230469 11.976562 20.230469 12.324219 C 20.230469 12.671875 20.195312 13.015625 20.128906 13.359375 C 20.0625 13.699219 19.960938 14.03125 19.828125 14.351562 C 19.695312 14.675781 19.535156 14.980469 19.34375 15.269531 C 19.148438 15.558594 18.929688 15.824219 18.6875 16.074219 C 18.441406 16.320312 18.175781 16.539062 17.890625 16.730469 C 17.601562 16.925781 17.300781 17.089844 16.980469 17.222656 C 16.660156 17.355469 16.332031 17.457031 15.992188 17.523438 C 15.652344 17.59375 15.3125 17.625 14.964844 17.628906 Z M 14.964844 9.671875 C 14.617188 9.671875 14.28125 9.738281 13.957031 9.875 C 13.636719 10.007812 13.351562 10.199219 13.105469 10.449219 C 12.855469 10.699219 12.667969 10.984375 12.535156 11.308594 C 12.398438 11.632812 12.332031 11.972656 12.332031 12.324219 C 12.332031 12.675781 12.398438 13.015625 12.535156 13.339844 C 12.667969 13.664062 12.855469 13.949219 13.105469 14.199219 C 13.351562 14.449219 13.636719 14.640625 13.957031 14.773438 C 14.28125 14.910156 14.617188 14.976562 14.964844 14.976562 C 15.316406 14.976562 15.652344 14.910156 15.972656 14.773438 C 16.296875 14.640625 16.582031 14.449219 16.828125 14.199219 C 17.074219 13.949219 17.265625 13.664062 17.398438 13.339844 C 17.53125 13.015625 17.597656 12.675781 17.597656 12.324219 C 17.597656 11.972656 17.53125 11.632812 17.398438 11.308594 C 17.265625 10.984375 17.074219 10.699219 16.828125 10.449219 C 16.582031 10.199219 16.296875 10.007812 15.972656 9.875 C 15.652344 9.738281 15.316406 9.671875 14.964844 9.671875 Z M 14.964844 9.671875 " fill-opacity="1" fill-rule="nonzero"/><g clip-path="url(#24ed7b64c5)"><path fill="#23f800" d="M 14.964844 27.550781 C 13.875 27.550781 12.945312 27.164062 12.175781 26.386719 L 6.585938 20.761719 C 6.035156 20.207031 5.546875 19.605469 5.113281 18.953125 C 4.683594 18.300781 4.316406 17.613281 4.019531 16.890625 C 3.722656 16.167969 3.496094 15.421875 3.34375 14.652344 C 3.195312 13.882812 3.117188 13.109375 3.117188 12.324219 C 3.117188 11.542969 3.195312 10.765625 3.34375 9.996094 C 3.496094 9.230469 3.722656 8.484375 4.019531 7.757812 C 4.316406 7.035156 4.683594 6.347656 5.113281 5.695312 C 5.546875 5.042969 6.039062 4.441406 6.589844 3.886719 C 7.136719 3.332031 7.738281 2.839844 8.382812 2.402344 C 9.03125 1.96875 9.710938 1.601562 10.429688 1.300781 C 11.148438 1 11.890625 0.773438 12.652344 0.621094 C 13.417969 0.46875 14.1875 0.394531 14.964844 0.394531 C 15.742188 0.394531 16.511719 0.46875 17.277344 0.621094 C 18.039062 0.773438 18.78125 1 19.5 1.300781 C 20.21875 1.601562 20.898438 1.96875 21.546875 2.402344 C 22.195312 2.839844 22.792969 3.332031 23.34375 3.886719 C 23.890625 4.441406 24.382812 5.042969 24.816406 5.695312 C 25.246094 6.347656 25.613281 7.035156 25.910156 7.757812 C 26.207031 8.484375 26.433594 9.230469 26.585938 9.996094 C 26.734375 10.765625 26.8125 11.542969 26.8125 12.324219 C 26.8125 13.109375 26.738281 13.882812 26.585938 14.652344 C 26.433594 15.421875 26.207031 16.167969 25.910156 16.890625 C 25.613281 17.613281 25.25 18.300781 24.816406 18.953125 C 24.382812 19.605469 23.894531 20.207031 23.34375 20.761719 L 17.757812 26.386719 C 16.984375 27.164062 16.054688 27.550781 14.964844 27.550781 Z M 14.964844 3.046875 C 14.054688 3.046875 13.164062 3.179688 12.289062 3.445312 C 11.417969 3.710938 10.601562 4.101562 9.84375 4.609375 C 9.085938 5.121094 8.417969 5.730469 7.839844 6.4375 C 7.261719 7.148438 6.800781 7.925781 6.449219 8.773438 C 6.101562 9.621094 5.882812 10.503906 5.792969 11.414062 C 5.703125 12.328125 5.75 13.234375 5.925781 14.136719 C 6.105469 15.035156 6.40625 15.890625 6.839844 16.699219 C 7.269531 17.507812 7.804688 18.238281 8.449219 18.886719 L 14.035156 24.511719 C 14.160156 24.636719 14.300781 24.730469 14.464844 24.800781 C 14.625 24.867188 14.792969 24.898438 14.964844 24.898438 C 15.140625 24.898438 15.308594 24.867188 15.46875 24.800781 C 15.628906 24.730469 15.773438 24.636719 15.894531 24.511719 L 21.480469 18.886719 C 22.125 18.238281 22.664062 17.507812 23.09375 16.699219 C 23.523438 15.890625 23.828125 15.035156 24.003906 14.136719 C 24.183594 13.234375 24.226562 12.328125 24.136719 11.414062 C 24.046875 10.503906 23.828125 9.621094 23.480469 8.773438 C 23.132812 7.925781 22.667969 7.148438 22.089844 6.4375 C 21.511719 5.730469 20.84375 5.121094 20.085938 4.609375 C 19.328125 4.101562 18.511719 3.710938 17.640625 3.445312 C 16.769531 3.179688 15.875 3.046875 14.964844 3.046875 Z M 22.414062 19.824219 Z M 22.414062 19.824219 " fill-opacity="1" fill-rule="nonzero"/></g><g fill="#000000" fill-opacity="1"><g transform="translate(9.997101, 13.685486)"><g><path d="M 1.75 0 L 1.625 -0.453125 L 0.84375 -0.453125 L 0.71875 0 L 0 0 L 0.796875 -2.4375 L 1.65625 -2.4375 L 2.46875 0 Z M 1.484375 -0.984375 L 1.390625 -1.390625 C 1.359375 -1.472656 1.328125 -1.582031 1.296875 -1.71875 C 1.265625 -1.863281 1.242188 -1.96875 1.234375 -2.03125 C 1.222656 -1.976562 1.203125 -1.882812 1.171875 -1.75 C 1.140625 -1.625 1.078125 -1.367188 0.984375 -0.984375 Z M 1.484375 -0.984375 "/></g></g><g transform="translate(12.456385, 13.685486)"><g><path d="M 2.34375 0 L 1.671875 0 L 1.671875 -0.984375 L 0.921875 -0.984375 L 0.921875 0 L 0.265625 0 L 0.265625 -2.421875 L 0.921875 -2.421875 L 0.921875 -1.515625 L 1.671875 -1.515625 L 1.671875 -2.421875 L 2.34375 -2.421875 Z M 2.34375 0 "/></g></g><g transform="translate(15.051285, 13.685486)"><g><path d="M 2.53125 -1.21875 C 2.53125 -0.8125 2.425781 -0.5 2.21875 -0.28125 C 2.019531 -0.0703125 1.726562 0.03125 1.34375 0.03125 C 0.96875 0.03125 0.675781 -0.0703125 0.46875 -0.28125 C 0.269531 -0.5 0.171875 -0.8125 0.171875 -1.21875 C 0.171875 -1.625 0.269531 -1.929688 0.46875 -2.140625 C 0.675781 -2.347656 0.972656 -2.453125 1.359375 -2.453125 C 1.742188 -2.453125 2.035156 -2.347656 2.234375 -2.140625 C 2.429688 -1.929688 2.53125 -1.625 2.53125 -1.21875 Z M 0.859375 -1.21875 C 0.859375 -0.75 1.019531 -0.515625 1.34375 -0.515625 C 1.507812 -0.515625 1.632812 -0.570312 1.71875 -0.6875 C 1.800781 -0.800781 1.84375 -0.976562 1.84375 -1.21875 C 1.84375 -1.457031 1.800781 -1.632812 1.71875 -1.75 C 1.632812 -1.863281 1.515625 -1.921875 1.359375 -1.921875 C 1.023438 -1.921875 0.859375 -1.6875 0.859375 -1.21875 Z M 0.859375 -1.21875 "/></g></g><g transform="translate(17.750377, 13.685486)"><g><path d="M 1.125 -1.515625 L 1.546875 -2.421875 L 2.25 -2.421875 L 1.453125 -0.953125 L 1.453125 0 L 0.796875 0 L 0.796875 -0.921875 L 0 -2.421875 L 0.71875 -2.421875 Z M 1.125 -1.515625 "/></g></g></g></svg>