<svg xmlns="http://www.w3.org/2000/svg" xmlns:xlink="http://www.w3.org/1999/xlink" width="40" zoomAndPan="magnify" viewBox="0 0 30 30.000001" height="40" preserveAspectRatio="xMidYMid meet" version="1.0"><defs><g/><clipPath id="f73f3c6533"><path d="M 0.484375 5 L 21 5 L 21 28 L 0.484375 28 Z M 0.484375 5 " clip-rule="nonzero"/></clipPath><clipPath id="56b6c89769"><path d="M 1 7 L 5 7 L 5 23.734375 L 1 23.734375 Z M 1 7 " clip-rule="nonzero"/></clipPath><clipPath id="de9db01c90"><path d="M 3.316406 8.78125 C 2.734375 7.402344 3.386719 7.332031 3.53125 7.476562 C 3.675781 7.621094 3.460938 8.492188 3.386719 8.492188 C 3.316406 8.492188 2.953125 7.476562 3.097656 7.257812 C 3.242188 7.113281 3.96875 7.183594 3.96875 7.257812 C 3.96875 7.332031 3.097656 7.402344 3.023438 7.621094 C 2.953125 7.910156 3.824219 8.492188 4.039062 9.21875 C 4.476562 10.597656 4.839844 14.371094 4.476562 15.675781 C 4.332031 16.332031 3.96875 16.984375 3.605469 16.984375 C 3.242188 16.984375 2.660156 16.332031 2.445312 15.75 C 2.226562 15.023438 2.589844 12.703125 2.804688 12.703125 C 3.023438 12.703125 3.824219 14.589844 3.894531 15.316406 C 3.96875 15.894531 3.75 16.765625 3.53125 16.765625 C 3.316406 16.765625 2.953125 16.039062 2.734375 15.386719 C 2.296875 13.863281 2.296875 7.621094 2.445312 7.621094 C 2.589844 7.621094 2.734375 11.324219 3.242188 12.484375 C 3.53125 13.210938 4.402344 13.71875 4.402344 14.082031 C 4.402344 14.296875 4.039062 14.660156 3.824219 14.660156 C 3.605469 14.660156 3.316406 13.933594 3.097656 13.355469 C 2.660156 12.195312 2.082031 7.839844 2.007812 7.839844 C 1.933594 7.839844 3.023438 12.703125 2.589844 13.425781 C 2.371094 13.71875 1.933594 13.933594 1.71875 13.789062 C 1.355469 13.5 1.5 9.945312 2.007812 9.507812 C 2.226562 9.289062 2.660156 9.289062 2.878906 9.507812 C 3.824219 10.453125 3.605469 21.847656 2.878906 22.933594 C 2.734375 23.152344 2.371094 23.226562 2.296875 23.152344 C 2.007812 22.863281 3.75 17.855469 3.894531 17.855469 C 3.96875 17.855469 3.894531 20.613281 3.460938 20.902344 C 3.242188 21.121094 2.734375 21.046875 2.445312 20.757812 C 1.644531 19.886719 1.210938 12.195312 1.863281 11.46875 C 2.082031 11.25 2.660156 11.324219 2.734375 11.46875 C 2.804688 11.613281 2.660156 12.121094 2.515625 12.195312 C 2.371094 12.265625 2.007812 12.121094 1.863281 11.902344 C 1.5 11.394531 1.574219 8.636719 1.933594 8.347656 C 2.152344 8.203125 2.660156 8.347656 2.734375 8.492188 C 2.804688 8.636719 2.515625 9.074219 2.371094 9.074219 C 2.226562 9.074219 1.789062 8.566406 1.863281 8.492188 C 1.933594 8.417969 2.515625 8.273438 2.734375 8.492188 C 3.097656 8.855469 3.097656 11.539062 2.734375 11.902344 C 2.515625 12.121094 1.863281 11.976562 1.863281 11.902344 C 1.863281 11.832031 2.515625 11.324219 2.734375 11.46875 C 3.386719 11.902344 2.589844 20.394531 2.804688 20.394531 C 2.953125 20.394531 2.953125 16.984375 3.386719 16.765625 C 3.675781 16.621094 4.183594 17.054688 4.402344 17.417969 C 4.695312 17.855469 4.765625 18.726562 4.621094 19.523438 C 4.402344 20.539062 3.460938 22.574219 2.878906 22.933594 C 2.589844 23.082031 2.226562 23.152344 2.007812 22.933594 C 1.28125 22.210938 1.5 16.765625 1.574219 14.296875 C 1.644531 12.484375 1.5 10.015625 2.007812 9.507812 C 2.226562 9.289062 2.734375 9.289062 2.878906 9.507812 C 3.242188 9.945312 2.226562 13.933594 2.007812 13.933594 C 1.789062 13.933594 1.355469 10.304688 1.425781 9.074219 C 1.5 8.347656 1.644531 7.476562 1.933594 7.332031 C 2.152344 7.183594 2.515625 7.257812 2.804688 7.546875 C 3.53125 8.347656 4.695312 14.445312 4.257812 14.660156 C 4.039062 14.804688 2.953125 13.71875 2.589844 12.847656 C 2.082031 11.683594 1.71875 8.203125 2.152344 7.910156 C 2.371094 7.765625 2.878906 7.984375 3.167969 8.347656 C 3.894531 9.363281 3.824219 16.695312 3.53125 16.765625 C 3.386719 16.765625 2.226562 13.644531 2.515625 13.136719 C 2.660156 12.917969 3.167969 12.773438 3.386719 12.917969 C 3.75 13.210938 3.675781 15.824219 3.605469 15.824219 C 3.53125 15.824219 2.007812 9.582031 2.515625 8.203125 C 2.734375 7.546875 3.605469 6.96875 3.75 7.039062 C 3.894531 7.113281 3.53125 8.492188 3.386719 8.492188 C 3.242188 8.492188 2.660156 7.476562 2.734375 7.402344 C 2.804688 7.332031 3.96875 8.203125 3.96875 8.417969 C 3.96875 8.566406 3.316406 8.78125 3.316406 8.78125 " clip-rule="nonzero"/></clipPath><clipPath id="534331e760"><path d="M 2.515625 6.96875 L 3.96875 6.96875 L 3.96875 9.871094 L 2.515625 9.871094 Z M 2.515625 6.96875 " clip-rule="nonzero"/></clipPath><clipPath id="dd297977cb"><path d="M 2.804688 9.144531 C 3.023438 6.96875 3.167969 7.621094 3.097656 7.695312 C 3.023438 7.765625 2.515625 7.621094 2.515625 7.476562 C 2.515625 7.332031 2.878906 6.96875 2.953125 6.96875 C 3.097656 6.96875 3.242188 7.621094 3.167969 7.695312 C 3.097656 7.765625 2.515625 7.621094 2.515625 7.546875 C 2.515625 7.476562 3.097656 7.113281 3.242188 7.183594 C 3.53125 7.332031 3.75 9.074219 3.53125 9.289062 C 3.386719 9.433594 2.804688 9.144531 2.804688 9.144531 " clip-rule="nonzero"/></clipPath><clipPath id="4dfd350dd1"><path d="M 2 19 L 13 19 L 13 24 L 2 24 Z M 2 19 " clip-rule="nonzero"/></clipPath><clipPath id="c2db37edc7"><path d="M 2.660156 22.5 C 8.683594 21.703125 12.460938 23.515625 12.53125 23.371094 C 12.53125 23.296875 9.265625 22.28125 9.121094 21.773438 C 9.046875 21.484375 9.410156 21.046875 9.628906 20.976562 C 9.992188 20.902344 11.007812 21.628906 11.226562 22.066406 C 11.371094 22.5 11.296875 23.371094 10.933594 23.515625 C 10.136719 23.878906 6.21875 20.03125 4.839844 20.324219 C 3.96875 20.46875 3.242188 22.5 3.097656 22.425781 C 3.023438 22.355469 3.097656 21.628906 3.316406 21.265625 C 3.675781 20.757812 4.839844 20.175781 5.566406 20.175781 C 6.289062 20.175781 7.523438 20.757812 7.816406 21.195312 C 8.03125 21.484375 7.960938 21.992188 7.742188 22.28125 C 7.453125 22.574219 6.726562 22.789062 6.144531 22.789062 C 5.417969 22.789062 3.824219 22.28125 3.605469 21.847656 C 3.53125 21.628906 3.675781 21.195312 3.894531 21.046875 C 4.332031 20.757812 6.363281 20.902344 6.652344 21.265625 C 6.796875 21.410156 6.796875 21.847656 6.652344 21.992188 C 6.363281 22.28125 4.402344 21.992188 4.039062 21.703125 C 3.894531 21.554688 3.75 21.195312 3.894531 21.046875 C 4.183594 20.613281 7.523438 20.324219 8.105469 20.757812 C 8.46875 21.046875 8.46875 21.992188 8.394531 22.066406 C 8.324219 22.066406 8.105469 21.410156 7.742188 21.195312 C 6.945312 20.757812 3.386719 20.832031 3.386719 20.832031 C 3.386719 20.832031 5.78125 21.046875 5.78125 20.902344 C 5.78125 20.757812 3.75 20.324219 3.75 20.175781 C 3.824219 19.960938 8.175781 19.816406 8.832031 20.46875 C 9.195312 20.902344 9.046875 21.992188 8.832031 22.355469 C 8.683594 22.574219 8.25 22.71875 7.960938 22.644531 C 7.667969 22.574219 7.304688 22.136719 7.234375 21.773438 C 7.160156 21.339844 7.667969 20.175781 7.960938 20.105469 C 8.175781 20.03125 8.757812 20.613281 8.757812 20.832031 C 8.757812 21.046875 8.46875 21.339844 8.105469 21.484375 C 7.378906 21.847656 4.402344 22.066406 4.039062 21.703125 C 3.894531 21.554688 3.96875 21.121094 4.113281 20.976562 C 4.476562 20.683594 6.871094 21.339844 6.871094 21.484375 C 6.871094 21.628906 5.128906 21.992188 4.476562 21.992188 C 4.039062 21.992188 3.53125 21.917969 3.460938 21.703125 C 3.386719 21.554688 3.460938 21.195312 3.675781 21.046875 C 4.113281 20.757812 6.945312 21.703125 6.945312 21.628906 C 6.945312 21.554688 6.074219 21.046875 5.566406 21.046875 C 4.839844 21.121094 3.460938 22.644531 3.097656 22.425781 C 2.804688 22.210938 3.097656 20.175781 3.53125 19.742188 C 3.824219 19.453125 4.332031 19.378906 4.910156 19.453125 C 5.925781 19.523438 8.03125 20.394531 9.046875 21.046875 C 9.773438 21.484375 10.574219 22.574219 10.574219 22.574219 C 10.574219 22.574219 8.976562 21.121094 9.121094 20.976562 C 9.265625 20.757812 11.296875 21.265625 11.878906 21.773438 C 12.386719 22.210938 12.96875 23.226562 12.75 23.515625 C 12.386719 24.023438 8.757812 22.5 6.945312 22.5 C 5.417969 22.5 3.167969 23.515625 2.734375 23.152344 C 2.589844 23.007812 2.660156 22.5 2.660156 22.5 " clip-rule="nonzero"/></clipPath><clipPath id="f95e685518"><path d="M 2.804688 19.234375 L 12.96875 19.234375 L 12.96875 25 L 2.804688 25 Z M 2.804688 19.234375 " clip-rule="nonzero"/></clipPath><clipPath id="6b120bc10c"><path d="M 4.257812 22.355469 C 3.097656 22.574219 2.953125 22.136719 3.097656 21.917969 C 3.386719 21.484375 5.492188 20.976562 6.796875 21.046875 C 8.324219 21.121094 10.789062 21.917969 11.589844 22.644531 C 12.023438 23.007812 12.386719 23.734375 12.242188 23.953125 C 11.804688 24.460938 6.144531 23.007812 4.546875 22.136719 C 3.675781 21.628906 2.804688 20.832031 2.804688 20.46875 C 2.804688 20.25 3.097656 20.03125 3.386719 19.960938 C 4.113281 19.816406 7.453125 20.832031 7.523438 21.265625 C 7.597656 21.484375 7.015625 21.847656 6.945312 21.847656 C 6.871094 21.847656 7.089844 21.046875 7.160156 21.046875 C 7.234375 21.046875 7.523438 21.703125 7.378906 21.847656 C 7.160156 22.066406 5.417969 21.410156 4.621094 21.195312 C 3.96875 20.976562 3.023438 20.832031 2.878906 20.539062 C 2.804688 20.394531 2.953125 19.960938 3.097656 19.960938 C 3.386719 19.886719 3.894531 21.046875 4.695312 21.484375 C 6.21875 22.355469 12.097656 23.152344 12.242188 23.734375 C 12.316406 23.953125 12.023438 24.167969 11.734375 24.242188 C 10.933594 24.386719 7.960938 21.917969 6.433594 21.773438 C 5.347656 21.703125 3.824219 22.863281 3.460938 22.644531 C 3.242188 22.5 3.242188 21.917969 3.316406 21.847656 C 3.460938 21.773438 4.257812 22.355469 4.257812 22.355469 " clip-rule="nonzero"/></clipPath><clipPath id="b37a734f67"><path d="M 10.644531 23 L 13.546875 23 L 13.546875 24.460938 L 10.644531 24.460938 Z M 10.644531 23 " clip-rule="nonzero"/></clipPath><clipPath id="20d2ea6fce"><path d="M 10.644531 23.515625 C 13.113281 22.425781 13.476562 24.023438 13.476562 24.023438 " clip-rule="nonzero"/></clipPath><clipPath id="de94882546"><path d="M 16.597656 19 L 27.484375 19 L 27.484375 24.386719 L 16.597656 24.386719 Z M 16.597656 19 " clip-rule="nonzero"/></clipPath><clipPath id="ca3e275bf2"><path d="M 16.597656 22.863281 C 17.976562 22.71875 17.394531 23.371094 17.46875 23.445312 C 17.539062 23.515625 18.410156 22.5 19.210938 22.210938 C 20.445312 21.773438 23.273438 21.992188 24.652344 22.066406 C 25.523438 22.136719 26.613281 22.210938 26.683594 22.425781 C 26.757812 22.574219 26.539062 22.933594 26.324219 22.933594 C 25.742188 23.007812 22.984375 20.832031 22.621094 20.105469 C 22.476562 19.816406 22.476562 19.378906 22.621094 19.304688 C 22.984375 19.160156 26.175781 22.136719 26.03125 22.425781 C 25.960938 22.644531 24.433594 22.210938 23.78125 21.917969 C 23.128906 21.628906 22.113281 21.046875 21.96875 20.613281 C 21.894531 20.394531 22.039062 19.960938 22.257812 19.886719 C 22.695312 19.742188 25.089844 21.339844 25.160156 21.773438 C 25.160156 21.992188 24.945312 22.28125 24.726562 22.28125 C 24.21875 22.28125 21.824219 19.523438 21.75 19.597656 C 21.675781 19.667969 23.492188 21.554688 23.492188 22.066406 C 23.492188 22.355469 23.273438 22.644531 23.054688 22.644531 C 22.695312 22.644531 21.242188 20.324219 21.242188 20.324219 C 21.242188 20.324219 23.128906 22.574219 23.273438 22.5 C 23.347656 22.425781 22.546875 21.121094 22.621094 21.046875 C 22.695312 20.976562 23.636719 21.773438 23.636719 21.992188 C 23.636719 22.136719 23.273438 22.425781 23.128906 22.355469 C 22.984375 22.28125 22.839844 21.265625 22.984375 21.121094 C 23.203125 20.976562 24.433594 21.703125 24.507812 21.992188 C 24.582031 22.210938 24.289062 22.574219 24 22.644531 C 23.492188 22.71875 22.039062 21.703125 21.460938 21.121094 C 21.023438 20.683594 20.589844 19.597656 20.589844 19.597656 C 20.589844 19.597656 22.039062 21.917969 22.039062 21.917969 C 22.039062 21.917969 21.605469 20.832031 21.460938 20.832031 C 21.316406 20.832031 21.605469 21.917969 21.386719 22.066406 C 21.167969 22.210938 20.296875 21.847656 20.082031 21.554688 C 19.863281 21.265625 20.007812 20.324219 20.082031 20.324219 C 20.226562 20.324219 21.242188 22.210938 21.097656 22.355469 C 20.953125 22.5 19.136719 21.265625 19.136719 21.339844 C 19.136719 21.410156 20.660156 22.28125 20.589844 22.425781 C 20.515625 22.574219 18.628906 22.355469 18.554688 22.136719 C 18.484375 21.773438 21.675781 20.03125 21.894531 20.25 C 21.96875 20.324219 21.675781 20.976562 21.675781 20.976562 C 21.675781 20.976562 21.96875 20.25 22.113281 20.25 C 22.257812 20.25 22.476562 21.046875 22.402344 21.121094 C 22.332031 21.195312 21.605469 20.902344 21.605469 20.757812 C 21.605469 20.613281 21.96875 20.25 22.113281 20.25 C 22.257812 20.25 22.621094 20.683594 22.546875 20.832031 C 22.476562 20.976562 21.75 21.121094 21.675781 20.976562 C 21.605469 20.832031 21.96875 20.03125 22.039062 20.03125 C 22.113281 20.03125 22.402344 20.683594 22.257812 21.046875 C 22.039062 21.628906 20.734375 22.574219 19.933594 22.789062 C 19.28125 23.007812 18.265625 23.007812 17.976562 22.644531 C 17.757812 22.355469 17.976562 21.339844 18.265625 20.976562 C 18.554688 20.613281 19.066406 20.46875 19.5 20.394531 C 20.082031 20.324219 21.167969 20.324219 21.386719 20.613281 C 21.53125 20.757812 21.386719 21.121094 21.242188 21.410156 C 20.878906 21.917969 19.574219 22.933594 18.917969 23.082031 C 18.554688 23.152344 18.046875 23.007812 17.902344 22.789062 C 17.757812 22.5 18.121094 21.554688 18.484375 21.410156 C 18.917969 21.265625 20.589844 22.355469 20.589844 22.425781 C 20.589844 22.5 18.339844 21.992188 18.265625 21.628906 C 18.195312 21.410156 18.847656 20.902344 19.210938 20.832031 C 19.71875 20.757812 20.804688 21.046875 21.097656 21.484375 C 21.316406 21.847656 21.316406 22.789062 21.097656 22.863281 C 20.878906 23.007812 19.789062 22.210938 19.644531 21.773438 C 19.5 21.339844 19.863281 20.394531 20.082031 20.324219 C 20.296875 20.25 20.878906 21.703125 21.023438 21.628906 C 21.167969 21.554688 20.878906 20.46875 21.097656 20.324219 C 21.316406 20.175781 21.894531 20.539062 22.183594 20.832031 C 22.546875 21.195312 22.984375 22.136719 22.839844 22.355469 C 22.695312 22.574219 21.386719 22.355469 21.023438 21.917969 C 20.589844 21.484375 20.296875 19.816406 20.589844 19.597656 C 21.023438 19.304688 24.21875 21.265625 24.363281 21.847656 C 24.433594 22.136719 23.855469 22.574219 23.855469 22.574219 C 23.855469 22.574219 24.507812 21.992188 24.507812 21.992188 C 24.507812 21.992188 24.144531 22.574219 23.925781 22.574219 C 23.566406 22.574219 22.476562 21.484375 22.546875 21.410156 C 22.621094 21.339844 23.78125 21.628906 23.925781 21.917969 C 24.074219 22.210938 23.855469 22.933594 23.636719 23.007812 C 23.417969 23.082031 22.476562 21.847656 22.546875 21.703125 C 22.621094 21.554688 23.417969 21.628906 23.566406 21.847656 C 23.710938 21.992188 23.710938 22.644531 23.566406 22.71875 C 23.417969 22.789062 23.203125 22.644531 22.910156 22.5 C 22.402344 22.210938 21.023438 21.265625 21.023438 20.832031 C 21.023438 20.613281 21.242188 20.324219 21.460938 20.324219 C 21.894531 20.324219 23.417969 22.5 23.492188 22.425781 C 23.566406 22.355469 21.605469 19.742188 21.75 19.597656 C 21.96875 19.378906 25.304688 21.773438 25.234375 21.917969 C 25.160156 22.066406 22.332031 21.195312 22.039062 20.683594 C 21.894531 20.46875 21.96875 20.03125 22.113281 19.960938 C 22.257812 19.886719 22.621094 20.03125 22.984375 20.175781 C 23.636719 20.539062 25.304688 22.28125 25.304688 22.355469 C 25.304688 22.425781 23.203125 21.121094 22.839844 20.46875 C 22.621094 20.105469 22.476562 19.453125 22.621094 19.304688 C 22.984375 19.089844 26.683594 21.554688 26.976562 22.355469 C 27.121094 22.644531 27.046875 22.933594 26.757812 23.152344 C 26.03125 23.734375 21.460938 22.71875 19.863281 23.082031 C 18.917969 23.296875 18.339844 24.097656 17.757812 24.023438 C 17.324219 23.953125 16.597656 23.445312 16.597656 23.226562 C 16.597656 23.007812 17.976562 22.574219 17.976562 22.644531 C 17.976562 22.71875 16.960938 23.660156 16.742188 23.589844 C 16.597656 23.515625 16.597656 22.863281 16.597656 22.863281 " clip-rule="nonzero"/></clipPath><clipPath id="0ab8fa27cd"><path d="M 16 22 L 17.976562 22 L 17.976562 24 L 16 24 Z M 16 22 " clip-rule="nonzero"/></clipPath><clipPath id="b708fc1dfd"><path d="M 17.324219 23.445312 C 16.960938 22.863281 17.613281 23.589844 17.539062 23.660156 C 17.46875 23.734375 16.816406 23.515625 16.816406 23.371094 C 16.816406 23.226562 17.175781 22.933594 17.25 22.933594 C 17.394531 22.933594 17.539062 23.660156 17.46875 23.734375 C 17.324219 23.804688 16.667969 23.660156 16.523438 23.445312 C 16.378906 23.296875 16.453125 22.863281 16.597656 22.71875 C 16.742188 22.574219 17.613281 22.644531 17.683594 22.789062 C 17.757812 22.933594 17.324219 23.445312 17.324219 23.445312 " clip-rule="nonzero"/></clipPath><clipPath id="624eaff610"><path d="M 15.433594 22.574219 L 19 22.574219 L 19 24.75 L 15.433594 24.75 Z M 15.433594 22.574219 " clip-rule="nonzero"/></clipPath><clipPath id="dbc4fbe301"><path d="M 18.195312 22.574219 C 18.628906 23.007812 17.976562 23.226562 17.902344 23.152344 C 17.832031 23.082031 17.976562 22.574219 18.046875 22.574219 C 18.121094 22.574219 18.554688 22.933594 18.554688 23.152344 C 18.554688 23.515625 17.757812 24.460938 17.25 24.605469 C 16.816406 24.75 16.234375 24.53125 15.945312 24.316406 C 15.652344 24.097656 15.433594 23.152344 15.433594 23.152344 " clip-rule="nonzero"/></clipPath><clipPath id="dd0233c3d9"><path d="M 15.507812 21.992188 L 19 21.992188 L 19 24.894531 L 15.507812 24.894531 Z M 15.507812 21.992188 " clip-rule="nonzero"/></clipPath><clipPath id="5e643d5f1c"><path d="M 18.046875 21.992188 C 17.832031 22.644531 17.832031 21.992188 17.976562 21.992188 C 18.121094 21.992188 18.484375 22.210938 18.484375 22.425781 C 18.554688 22.789062 17.683594 24.167969 17.175781 24.242188 C 16.667969 24.316406 15.507812 23.152344 15.507812 23.152344 " clip-rule="nonzero"/></clipPath><clipPath id="003ccc8775"><path d="M 23.417969 7.039062 L 27.773438 7.039062 L 27.773438 23.734375 L 23.417969 23.734375 Z M 23.417969 7.039062 " clip-rule="nonzero"/></clipPath><clipPath id="910c2fc8b8"><path d="M 26.613281 23.226562 C 24.726562 14.152344 25.453125 7.113281 25.960938 7.039062 C 26.25 7.039062 26.832031 9 26.976562 10.378906 C 27.265625 12.628906 27.265625 18.507812 26.539062 19.234375 C 26.324219 19.453125 25.886719 19.453125 25.667969 19.234375 C 25.089844 18.726562 24.726562 15.53125 24.796875 14.082031 C 24.871094 13.066406 25.453125 11.394531 25.667969 11.394531 C 25.960938 11.394531 26.25 13.574219 26.25 14.589844 C 26.25 15.460938 26.175781 16.695312 25.816406 16.984375 C 25.597656 17.128906 25.089844 17.128906 24.945312 16.910156 C 24.726562 16.621094 25.160156 15.167969 25.523438 14.878906 C 25.742188 14.734375 26.25 14.660156 26.394531 14.878906 C 26.757812 15.316406 26.25 17.566406 26.03125 18.726562 C 25.886719 19.667969 25.816406 21.046875 25.453125 21.195312 C 25.160156 21.265625 24.074219 20.105469 24.074219 20.03125 C 24.144531 19.960938 26.175781 20.976562 26.175781 21.265625 C 26.175781 21.410156 25.742188 21.773438 25.597656 21.703125 C 25.453125 21.628906 25.378906 20.902344 25.453125 20.832031 C 25.523438 20.757812 26.175781 21.046875 26.175781 21.195312 C 26.175781 21.339844 25.597656 21.773438 25.523438 21.703125 C 25.453125 21.628906 25.886719 20.757812 25.886719 20.757812 C 25.886719 20.757812 25.816406 21.628906 25.597656 21.703125 C 25.234375 21.847656 23.417969 20.683594 23.417969 20.25 C 23.417969 19.960938 24.21875 19.304688 24.507812 19.378906 C 24.796875 19.453125 25.089844 20.613281 25.234375 20.539062 C 25.597656 20.46875 25.015625 15.097656 25.523438 14.878906 C 25.742188 14.804688 26.324219 15.167969 26.394531 15.460938 C 26.539062 15.824219 25.960938 16.984375 25.667969 17.128906 C 25.453125 17.203125 25.089844 17.128906 24.945312 16.910156 C 24.507812 16.257812 25.160156 11.683594 25.667969 11.394531 C 25.816406 11.324219 26.175781 11.46875 26.25 11.683594 C 26.46875 12.121094 25.667969 13.210938 25.667969 14.152344 C 25.597656 15.53125 26.976562 18.726562 26.539062 19.234375 C 26.394531 19.453125 25.886719 19.453125 25.667969 19.234375 C 24.796875 18.363281 25.378906 7.402344 25.667969 7.332031 C 25.742188 7.332031 25.816406 7.839844 25.886719 7.839844 C 26.03125 7.839844 26.25 7.039062 26.324219 7.039062 C 26.613281 7.113281 25.523438 14.007812 25.816406 16.839844 C 26.03125 19.160156 27.703125 22.210938 27.339844 22.933594 C 27.195312 23.226562 26.613281 23.226562 26.613281 23.226562 " clip-rule="nonzero"/></clipPath><clipPath id="742d3557fc"><path d="M 24.21875 20 L 26 20 L 26 22.5 L 24.21875 22.5 Z M 24.21875 20 " clip-rule="nonzero"/></clipPath><clipPath id="1e21a38c03"><path d="M 25.160156 21.847656 C 24.363281 18.796875 25.597656 20.613281 25.816406 21.195312 C 25.886719 21.554688 25.960938 21.992188 25.816406 22.066406 C 25.667969 22.136719 25.160156 21.847656 25.160156 21.847656 " clip-rule="nonzero"/></clipPath><clipPath id="22de8d1758"><path d="M 25.304688 20 L 26.757812 20 L 26.757812 21.992188 L 25.304688 21.992188 Z M 25.304688 20 " clip-rule="nonzero"/></clipPath><clipPath id="3ece00dd52"><path d="M 25.886719 21.628906 C 25.453125 19.015625 26.757812 21.339844 26.613281 21.628906 C 26.539062 21.773438 25.886719 21.628906 25.886719 21.628906 " clip-rule="nonzero"/></clipPath><clipPath id="8f65422294"><path d="M 25 19 L 27 19 L 27 21.554688 L 25 21.554688 Z M 25 19 " clip-rule="nonzero"/></clipPath><clipPath id="56d3b1af9e"><path d="M 25.597656 21.339844 C 25.015625 18.582031 26.46875 20.683594 26.324219 21.046875 C 26.25 21.265625 25.597656 21.339844 25.597656 21.339844 " clip-rule="nonzero"/></clipPath><clipPath id="5d7f1e5bef"><path d="M 24 19 L 27.410156 19 L 27.410156 22.71875 L 24 22.71875 Z M 24 19 " clip-rule="nonzero"/></clipPath><clipPath id="2d529338e7"><path d="M 24.582031 19.742188 C 24.871094 19.089844 25.304688 19.453125 25.234375 19.597656 C 25.160156 19.742188 24.582031 19.816406 24.507812 19.742188 C 24.433594 19.667969 24.507812 19.160156 24.726562 19.089844 C 25.089844 18.871094 26.46875 19.234375 26.902344 19.667969 C 27.265625 20.03125 27.410156 20.757812 27.265625 21.195312 C 27.121094 21.628906 26.25 22.28125 26.25 22.28125 " clip-rule="nonzero"/></clipPath><clipPath id="aea42243fc"><path d="M 26 7 L 28 7 L 28 23.953125 L 26 23.953125 Z M 26 7 " clip-rule="nonzero"/></clipPath><clipPath id="cea2e51736"><path d="M 26.757812 23.082031 C 25.960938 12.992188 27.046875 11.832031 27.121094 10.523438 C 27.195312 9.363281 26.394531 7.332031 26.539062 7.257812 C 26.683594 7.183594 27.917969 8.925781 27.992188 9.871094 C 28.066406 10.960938 26.902344 11.976562 26.683594 13.425781 C 26.394531 15.675781 27.410156 20.613281 27.484375 22.136719 C 27.484375 22.644531 27.628906 23.082031 27.484375 23.226562 C 27.339844 23.296875 26.757812 23.082031 26.757812 23.082031 " clip-rule="nonzero"/></clipPath><clipPath id="6eb53c9a8d"><path d="M 25.160156 7 L 28 7 L 28 22.789062 L 25.160156 22.789062 Z M 25.160156 7 " clip-rule="nonzero"/></clipPath><clipPath id="4089719903"><path d="M 26.613281 7.839844 C 27.992188 16.332031 27.628906 22.136719 26.976562 22.5 C 26.832031 22.574219 26.46875 22.425781 26.394531 22.28125 C 26.324219 22.136719 26.613281 21.554688 26.757812 21.554688 C 26.902344 21.554688 27.339844 22.210938 27.265625 22.28125 C 27.195312 22.355469 26.613281 22.425781 26.394531 22.136719 C 25.742188 21.339844 27.121094 16.257812 26.976562 13.933594 C 26.832031 12.121094 25.960938 10.304688 25.886719 9.144531 C 25.816406 8.492188 25.742188 7.695312 25.960938 7.546875 C 26.105469 7.476562 26.613281 7.839844 26.613281 7.839844 " clip-rule="nonzero"/></clipPath><clipPath id="5134dd9ed6"><path d="M 26.324219 8 L 28 8 L 28 15 L 26.324219 15 Z M 26.324219 8 " clip-rule="nonzero"/></clipPath><clipPath id="9054049dec"><path d="M 26.757812 14.445312 C 26.539062 7.039062 27.484375 8.492188 27.703125 9.507812 C 28.066406 10.886719 27.992188 14.296875 27.484375 14.660156 C 27.265625 14.804688 26.757812 14.445312 26.757812 14.445312 " clip-rule="nonzero"/></clipPath><clipPath id="0912faf77b"><path d="M 26 8 L 27 8 L 27 9.507812 L 26 9.507812 Z M 26 8 " clip-rule="nonzero"/></clipPath><clipPath id="6aa0d3b3f3"><path d="M 26.175781 9.144531 C 25.742188 7.257812 27.046875 8.925781 26.902344 9.144531 C 26.832031 9.289062 26.175781 9.144531 26.175781 9.144531 " clip-rule="nonzero"/></clipPath><clipPath id="d0e3584685"><path d="M 26.324219 7.695312 L 27.773438 7.695312 L 27.773438 9.871094 L 26.324219 9.871094 Z M 26.324219 7.695312 " clip-rule="nonzero"/></clipPath><clipPath id="fd0093dfe5"><path d="M 26.324219 8.054688 C 27.121094 7.765625 27.628906 8.417969 27.554688 8.710938 C 27.484375 9.074219 26.324219 9.652344 26.324219 9.652344 " clip-rule="nonzero"/></clipPath><clipPath id="8e515ce5e9"><path d="M 26.25 7 L 28 7 L 28 9.363281 L 26.25 9.363281 Z M 26.25 7 " clip-rule="nonzero"/></clipPath><clipPath id="399ec60a7b"><path d="M 26.25 7.910156 C 26.324219 7.183594 26.25 7.910156 26.25 7.910156 C 26.25 7.910156 26.25 7.257812 26.394531 7.183594 C 26.613281 7.039062 27.773438 7.546875 27.847656 7.910156 C 27.917969 8.273438 27.046875 9.289062 27.046875 9.289062 " clip-rule="nonzero"/></clipPath><clipPath id="b45377592b"><path d="M 26.46875 8.492188 L 28.644531 8.492188 L 28.644531 23 L 26.46875 23 Z M 26.46875 8.492188 " clip-rule="nonzero"/></clipPath><clipPath id="fa56372a88"><path d="M 26.902344 21.992188 C 26.613281 10.089844 27.046875 8.492188 27.121094 8.492188 C 27.195312 8.492188 27.265625 9.21875 27.195312 9.289062 C 27.121094 9.363281 26.539062 9 26.539062 8.925781 C 26.539062 8.855469 27.195312 8.710938 27.410156 8.925781 C 28.28125 9.796875 28.066406 19.378906 27.773438 21.265625 C 27.703125 21.847656 27.628906 22.355469 27.410156 22.425781 C 27.265625 22.5 26.902344 21.992188 26.902344 21.992188 " clip-rule="nonzero"/></clipPath><clipPath id="872f24adaa"><path d="M 1.070312 2.585938 L 28.648438 2.585938 L 28.648438 25.8125 L 1.070312 25.8125 Z M 1.070312 2.585938 " clip-rule="nonzero"/></clipPath></defs><g clip-path="url(#f73f3c6533)"><path stroke-linecap="butt" transform="matrix(0.514993, 0.504318, -0.50782, 0.518569, 3.119432, 9.748826)" fill="none" stroke-linejoin="miter" d="M 0.00136098 0.498101 L 26.700631 0.497953 " stroke="#000000" stroke-width="1" stroke-opacity="1" stroke-miterlimit="4"/></g><path stroke-linecap="round" transform="matrix(0.514993, 0.504318, -0.50782, 0.518569, 16.873319, 23.725559)" fill="none" stroke-linejoin="round" d="M -2.49934 -1.499505 L -0.499369 -0.00204752 L -2.500306 1.49947 " stroke="#000000" stroke-width="1" stroke-opacity="1" stroke-miterlimit="4"/><g clip-path="url(#56b6c89769)"><g clip-path="url(#de9db01c90)"><path fill="#000000" d="M -1.476562 4.136719 L 7.234375 4.136719 L 7.234375 25.910156 L -1.476562 25.910156 Z M -1.476562 4.136719 " fill-opacity="1" fill-rule="nonzero"/></g></g><g clip-path="url(#534331e760)"><g clip-path="url(#dd297977cb)"><path fill="#000000" d="M -0.386719 4.066406 L 6.144531 4.066406 L 6.144531 12.046875 L -0.386719 12.046875 Z M -0.386719 4.066406 " fill-opacity="1" fill-rule="nonzero"/></g></g><g clip-path="url(#4dfd350dd1)"><g clip-path="url(#c2db37edc7)"><path fill="#000000" d="M -0.242188 16.546875 L 15.726562 16.546875 L 15.726562 26.710938 L -0.242188 26.710938 Z M -0.242188 16.546875 " fill-opacity="1" fill-rule="nonzero"/></g></g><g clip-path="url(#f95e685518)"><g clip-path="url(#6b120bc10c)"><path fill="#000000" d="M -0.0976562 17.054688 L 15.144531 17.054688 L 15.144531 27.21875 L -0.0976562 27.21875 Z M -0.0976562 17.054688 " fill-opacity="1" fill-rule="nonzero"/></g></g><g clip-path="url(#b37a734f67)"><g clip-path="url(#20d2ea6fce)"><path fill="#000000" d="M 7.742188 19.378906 L 16.453125 19.378906 L 16.453125 26.636719 L 7.742188 26.636719 Z M 7.742188 19.378906 " fill-opacity="1" fill-rule="nonzero"/></g></g><g clip-path="url(#de94882546)"><g clip-path="url(#ca3e275bf2)"><path fill="#000000" d="M 13.695312 16.402344 L 29.660156 16.402344 L 29.660156 27.289062 L 13.695312 27.289062 Z M 13.695312 16.402344 " fill-opacity="1" fill-rule="nonzero"/></g></g><g clip-path="url(#0ab8fa27cd)"><g clip-path="url(#b708fc1dfd)"><path fill="#000000" d="M 13.621094 19.816406 L 20.878906 19.816406 L 20.878906 26.347656 L 13.621094 26.347656 Z M 13.621094 19.816406 " fill-opacity="1" fill-rule="nonzero"/></g></g><g clip-path="url(#624eaff610)"><g clip-path="url(#dbc4fbe301)"><path fill="#000000" d="M 12.53125 19.667969 L 21.242188 19.667969 L 21.242188 27.652344 L 12.53125 27.652344 Z M 12.53125 19.667969 " fill-opacity="1" fill-rule="nonzero"/></g></g><g clip-path="url(#dd0233c3d9)"><g clip-path="url(#5e643d5f1c)"><path fill="#000000" d="M 12.605469 19.089844 L 21.316406 19.089844 L 21.316406 27.074219 L 12.605469 27.074219 Z M 12.605469 19.089844 " fill-opacity="1" fill-rule="nonzero"/></g></g><g clip-path="url(#003ccc8775)"><g clip-path="url(#910c2fc8b8)"><path fill="#000000" d="M 20.515625 4.136719 L 29.953125 4.136719 L 29.953125 25.910156 L 20.515625 25.910156 Z M 20.515625 4.136719 " fill-opacity="1" fill-rule="nonzero"/></g></g><g clip-path="url(#742d3557fc)"><g clip-path="url(#1e21a38c03)"><path fill="#000000" d="M 21.316406 15.96875 L 28.574219 15.96875 L 28.574219 24.675781 L 21.316406 24.675781 Z M 21.316406 15.96875 " fill-opacity="1" fill-rule="nonzero"/></g></g><g clip-path="url(#22de8d1758)"><g clip-path="url(#3ece00dd52)"><path fill="#000000" d="M 22.402344 16.183594 L 29.660156 16.183594 L 29.660156 24.894531 L 22.402344 24.894531 Z M 22.402344 16.183594 " fill-opacity="1" fill-rule="nonzero"/></g></g><g clip-path="url(#8f65422294)"><g clip-path="url(#56d3b1af9e)"><path fill="#000000" d="M 21.96875 15.75 L 29.226562 15.75 L 29.226562 24.460938 L 21.96875 24.460938 Z M 21.96875 15.75 " fill-opacity="1" fill-rule="nonzero"/></g></g><g clip-path="url(#5d7f1e5bef)"><g clip-path="url(#2d529338e7)"><path fill="#000000" d="M 21.605469 16.183594 L 30.316406 16.183594 L 30.316406 24.894531 L 21.605469 24.894531 Z M 21.605469 16.183594 " fill-opacity="1" fill-rule="nonzero"/></g></g><g clip-path="url(#aea42243fc)"><g clip-path="url(#cea2e51736)"><path fill="#000000" d="M 22.910156 4.355469 L 30.894531 4.355469 L 30.894531 26.128906 L 22.910156 26.128906 Z M 22.910156 4.355469 " fill-opacity="1" fill-rule="nonzero"/></g></g><g clip-path="url(#6eb53c9a8d)"><g clip-path="url(#4089719903)"><path fill="#000000" d="M 22.984375 4.644531 L 30.96875 4.644531 L 30.96875 25.695312 L 22.984375 25.695312 Z M 22.984375 4.644531 " fill-opacity="1" fill-rule="nonzero"/></g></g><g clip-path="url(#5134dd9ed6)"><g clip-path="url(#9054049dec)"><path fill="#000000" d="M 23.417969 4.210938 L 30.675781 4.210938 L 30.675781 17.273438 L 23.417969 17.273438 Z M 23.417969 4.210938 " fill-opacity="1" fill-rule="nonzero"/></g></g><g clip-path="url(#0912faf77b)"><g clip-path="url(#6aa0d3b3f3)"><path fill="#000000" d="M 22.765625 4.425781 L 30.023438 4.425781 L 30.023438 12.410156 L 22.765625 12.410156 Z M 22.765625 4.425781 " fill-opacity="1" fill-rule="nonzero"/></g></g><g clip-path="url(#d0e3584685)"><g clip-path="url(#fd0093dfe5)"><path fill="#000000" d="M 23.417969 4.789062 L 30.675781 4.789062 L 30.675781 12.773438 L 23.417969 12.773438 Z M 23.417969 4.789062 " fill-opacity="1" fill-rule="nonzero"/></g></g><g clip-path="url(#8e515ce5e9)"><g clip-path="url(#399ec60a7b)"><path fill="#000000" d="M 23.347656 4.28125 L 30.605469 4.28125 L 30.605469 12.265625 L 23.347656 12.265625 Z M 23.347656 4.28125 " fill-opacity="1" fill-rule="nonzero"/></g></g><g clip-path="url(#b45377592b)"><g clip-path="url(#fa56372a88)"><path fill="#000000" d="M 23.566406 5.589844 L 30.824219 5.589844 L 30.824219 25.183594 L 23.566406 25.183594 Z M 23.566406 5.589844 " fill-opacity="1" fill-rule="nonzero"/></g></g><g clip-path="url(#872f24adaa)"><path fill="#000000" d="M 28.441406 8.558594 C 28.402344 7.914062 28.640625 7.191406 28.210938 6.628906 C 27.453125 6.421875 26.703125 6.210938 25.945312 6.027344 C 25.90625 5.089844 25.980469 4.152344 25.910156 3.222656 C 25.800781 2.585938 25.023438 2.808594 24.574219 2.800781 C 20.667969 2.996094 17.070312 5.199219 14.773438 8.292969 C 12.304688 4.941406 8.257812 2.628906 4.015625 2.800781 C 3.933594 2.875 3.761719 3.015625 3.675781 3.085938 C 3.546875 4.058594 3.667969 5.046875 3.617188 6.023438 C 2.757812 6.367188 1.488281 6.3125 1.078125 7.300781 C 1.238281 7.691406 1.277344 8.113281 1.261719 8.53125 C 1.222656 13.480469 1.292969 18.425781 1.226562 23.371094 C 1.160156 23.742188 1.230469 24.402344 1.765625 24.285156 C 3.5 23.65625 5.371094 23.429688 7.210938 23.535156 C 9.714844 23.730469 12.3125 24.316406 14.367188 25.8125 C 14.570312 25.8125 14.96875 25.8125 15.164062 25.8125 C 16.304688 24.941406 17.683594 24.46875 19.046875 24.078125 C 21.96875 23.261719 25.125 23.335938 28 24.316406 C 28.613281 24.210938 28.445312 23.542969 28.453125 23.097656 C 28.425781 18.253906 28.445312 13.40625 28.441406 8.558594 Z M 2.304688 22.945312 C 2.320312 17.839844 2.300781 12.726562 2.3125 7.617188 C 2.75 7.464844 3.191406 7.308594 3.628906 7.15625 C 3.621094 11.234375 3.625 15.316406 3.628906 19.394531 C 3.570312 20.136719 4.503906 20.007812 4.988281 20.054688 C 7.882812 20.175781 10.519531 21.640625 12.621094 23.546875 C 9.375 22.242188 5.675781 21.945312 2.304688 22.945312 Z M 16.441406 23.808594 C 18.046875 22.242188 19.898438 20.839844 22.097656 20.234375 C 23.230469 19.851562 24.429688 19.8125 25.609375 19.703125 C 25.988281 19.65625 25.910156 19.183594 25.9375 18.917969 C 25.933594 15.015625 25.933594 11.113281 25.933594 7.210938 C 26.40625 7.351562 26.878906 7.496094 27.355469 7.632812 C 27.421875 12.742188 27.359375 17.851562 27.386719 22.960938 C 23.789062 21.96875 19.855469 22.324219 16.441406 23.808594 Z M 16.441406 23.808594 " fill-opacity="1" fill-rule="nonzero"/></g><g fill="#ffffff" fill-opacity="1"><g transform="translate(2.496074, 17.457081)"><g><path d="M 2.0625 -0.90625 L 1.5625 -1.484375 L 0.546875 -1.03125 L 0.640625 -0.28125 L 0 0 L -0.265625 -3.234375 L 0.453125 -3.546875 L 2.6875 -1.1875 Z M 1.203125 -1.921875 C 0.742188 -2.441406 0.484375 -2.734375 0.421875 -2.796875 C 0.367188 -2.867188 0.328125 -2.921875 0.296875 -2.953125 C 0.328125 -2.773438 0.382812 -2.320312 0.46875 -1.59375 Z M 1.203125 -1.921875 "/></g></g></g><g fill="#ffffff" fill-opacity="1"><g transform="translate(5.039121, 16.307204)"><g><path d="M 2.734375 -0.875 L 2.125 -0.671875 L 1.734375 -1.921875 L 0.59375 -1.5625 L 0.984375 -0.3125 L 0.375 -0.125 L -0.546875 -3.03125 L 0.0625 -3.21875 L 0.421875 -2.078125 L 1.5625 -2.4375 L 1.203125 -3.578125 L 1.8125 -3.78125 Z M 2.734375 -0.875 "/></g></g></g><g fill="#ffffff" fill-opacity="1"><g transform="translate(7.990008, 15.355889)"><g><path d="M 2.796875 -2.09375 C 2.890625 -1.59375 2.835938 -1.1875 2.640625 -0.875 C 2.453125 -0.5625 2.132812 -0.363281 1.6875 -0.28125 C 1.226562 -0.1875 0.847656 -0.25 0.546875 -0.46875 C 0.253906 -0.6875 0.0625 -1.046875 -0.03125 -1.546875 C -0.132812 -2.046875 -0.0859375 -2.445312 0.109375 -2.75 C 0.304688 -3.0625 0.632812 -3.265625 1.09375 -3.359375 C 1.550781 -3.441406 1.925781 -3.375 2.21875 -3.15625 C 2.507812 -2.9375 2.703125 -2.582031 2.796875 -2.09375 Z M 0.625 -1.671875 C 0.6875 -1.335938 0.796875 -1.097656 0.953125 -0.953125 C 1.109375 -0.804688 1.316406 -0.757812 1.578125 -0.8125 C 2.078125 -0.90625 2.265625 -1.289062 2.140625 -1.96875 C 2.003906 -2.644531 1.6875 -2.9375 1.1875 -2.84375 C 0.925781 -2.789062 0.75 -2.664062 0.65625 -2.46875 C 0.570312 -2.269531 0.5625 -2.003906 0.625 -1.671875 Z M 0.625 -1.671875 "/></g></g></g><g fill="#ffffff" fill-opacity="1"><g transform="translate(11.179086, 14.755722)"><g><path d="M 1.1875 -1.90625 L 1.71875 -3.1875 L 2.390625 -3.25 L 1.5625 -1.328125 L 1.65625 -0.140625 L 1.015625 -0.078125 L 0.921875 -1.25 L -0.25 -3.03125 L 0.453125 -3.09375 Z M 1.1875 -1.90625 "/></g></g></g><g fill="#ffffff" fill-opacity="1"><g transform="translate(13.739935, 14.568482)"><g/></g></g><g fill="#ffffff" fill-opacity="1"><g transform="translate(14.721168, 14.481342)"><g><path d="M 1.671875 0.125 L 1.125 -2.3125 L 1.109375 -2.328125 C 1.085938 -1.828125 1.070312 -1.5 1.0625 -1.34375 L 0.953125 0.078125 L 0.390625 0.03125 L 0.625 -3 L 1.5 -2.9375 L 2.046875 -0.5625 L 2.0625 -0.5625 L 2.984375 -2.828125 L 3.859375 -2.75 L 3.625 0.28125 L 3.015625 0.234375 L 3.125 -1.203125 C 3.132812 -1.273438 3.144531 -1.351562 3.15625 -1.4375 C 3.164062 -1.53125 3.191406 -1.769531 3.234375 -2.15625 L 3.21875 -2.15625 L 2.265625 0.171875 Z M 1.671875 0.125 "/></g></g></g><g fill="#ffffff" fill-opacity="1"><g transform="translate(18.56959, 14.812646)"><g><path d="M 2.109375 0.40625 L 0.390625 0.078125 L 0.96875 -2.90625 L 2.6875 -2.578125 L 2.578125 -2.0625 L 1.484375 -2.28125 L 1.359375 -1.625 L 2.375 -1.421875 L 2.28125 -0.890625 L 1.265625 -1.09375 L 1.109375 -0.328125 L 2.203125 -0.109375 Z M 2.109375 0.40625 "/></g></g></g><g fill="#ffffff" fill-opacity="1"><g transform="translate(20.781471, 15.200276)"><g><path d="M 2.953125 0.890625 L 2.171875 0.65625 L 1.5625 -1.9375 L 1.546875 -1.9375 C 1.441406 -1.53125 1.367188 -1.25 1.328125 -1.09375 L 0.90625 0.28125 L 0.375 0.109375 L 1.265625 -2.8125 L 2.046875 -2.578125 L 2.625 0 L 2.640625 0 C 2.734375 -0.382812 2.804688 -0.660156 2.859375 -0.828125 L 3.28125 -2.203125 L 3.84375 -2.03125 Z M 2.953125 0.890625 "/></g></g></g><g fill="#ffffff" fill-opacity="1"><g transform="translate(23.94386, 16.155672)"><g><path d="M 3.84375 -1.65625 L 3.0625 0.15625 C 2.96875 0.363281 2.835938 0.523438 2.671875 0.640625 C 2.515625 0.753906 2.328125 0.816406 2.109375 0.828125 C 1.898438 0.835938 1.675781 0.789062 1.4375 0.6875 C 1.09375 0.53125 0.859375 0.3125 0.734375 0.03125 C 0.609375 -0.238281 0.617188 -0.53125 0.765625 -0.84375 L 1.546875 -2.65625 L 2.140625 -2.390625 L 1.390625 -0.6875 C 1.296875 -0.46875 1.269531 -0.285156 1.3125 -0.140625 C 1.363281 -0.00390625 1.484375 0.101562 1.671875 0.1875 C 1.878906 0.28125 2.046875 0.289062 2.171875 0.21875 C 2.296875 0.15625 2.40625 0.015625 2.5 -0.203125 L 3.25 -1.90625 Z M 3.84375 -1.65625 "/></g></g></g></svg>