<?xml version="1.0" encoding="utf-8" ?>
<svg xmlns="http://www.w3.org/2000/svg" xmlns:xlink="http://www.w3.org/1999/xlink" width="200" height="200">
	<path transform="scale(0.3125 0.3125)" d="M153.253 537.497L147.149 536.631C116.756 529.477 94.2035 491.528 114.422 463.158C122.404 451.959 133.246 442.193 142.961 432.535C171.142 404.518 209.444 367.262 243.996 346.719C251.108 342.49 253.015 342.37 260.561 344.294L267.036 336.86L217.982 286.912C209.378 279.566 188.51 282.089 184.554 293.391C182.922 298.054 184.54 302.92 180.88 307.111C175.58 313.181 168.797 311.225 162.188 308.764C126.655 295.531 101.25 259.301 100.572 221.441C100.233 202.526 107.379 173.815 129.94 198.032L138.287 206.953C148.504 217.032 153.778 210.748 161.47 203.066L195.492 168.618C205.278 158.252 200.552 150.67 188.35 144.926C184.608 143.164 180.821 143.17 177.652 140.109C168.769 131.532 176.217 124.245 185.875 121.596C237.807 107.352 292.361 147.247 298.258 200.312C298.836 205.514 300.201 212.681 295.518 216.435C286.766 223.451 275.277 203.14 270.061 208.281C266.132 212.154 263.603 220.044 263.693 225.429C263.801 231.896 269.443 236.474 273.655 240.685L319.778 285.933L383.299 222.455L382.936 219.204C378.431 180.841 347.939 150.519 312.082 139.219L293.438 134.744C290.786 134.191 287.64 133.704 285.509 131.907C282.325 129.223 282.657 124.093 285.469 121.252C290.863 115.8 307.981 115.039 315.485 114.775C366.26 111.346 412.333 138.06 453.865 164.201C463.874 170.501 481.559 180.446 485.063 192.719C486.461 197.615 486.041 202.736 487.206 207.656C491.506 225.816 507.02 241.206 522.21 250.781C528.564 254.787 540.07 246.517 551.198 263.324C562.838 280.903 547.479 292.873 536.643 303.813C532.482 308.014 528.587 313.033 523.578 316.228C506.097 327.378 479.595 306.072 484.653 286.344L484.796 285.796C483.515 283.774 481.017 281.772 479.261 280.115C466.811 268.37 455.428 264.43 438.932 264.967C427.279 265.347 424.5 270.646 416.786 278.535L365.497 329.705C365.923 330.541 366.801 331.198 367.472 331.839L498.545 462.127C504.088 467.387 510.359 472.597 514.99 478.666C539.515 510.806 500.72 551.379 467.878 530.157C461.541 526.062 456.329 519.999 451.032 514.667L332.136 396.429C326.701 391.075 321.387 385.496 315.411 380.742C312.593 383.598 302.716 390.195 302.171 391.875L302.661 392.652C302.426 401.417 294.575 408.897 289.534 415.425L260.781 449.49L196.574 514.854C181.914 528.544 174.231 537.672 153.253 537.497ZM336.227 131.607C364.737 146.541 385.68 169.5 395.359 200.684C399.314 213.428 402.991 225.764 392.935 235.982L274.008 353.6L296.442 376.254L383.38 289.146C386.812 285.797 414.506 258.639 414.65 257.291C415.193 252.206 416.724 249.582 421.875 249.604L431.25 249.745C434.007 249.735 436.733 249.039 439.477 248.827C460.257 247.215 477.928 256.616 492.825 270.443C508.231 284.743 495.364 282.881 500.309 292.443C502.504 296.687 506.523 301.463 511.25 302.859C515.448 304.1 519.245 298.74 521.787 296.148L532.287 285.412C537.373 280.221 543.121 276.859 535.469 269.219C534.188 267.941 532.564 268.49 530.934 268.492C503.273 268.528 476.545 234.867 471.982 209.936C470.282 200.649 470.434 196.492 463.125 190.026C457.105 184.701 449.638 180.508 442.803 176.279C413.274 158.007 381.217 139.285 346.641 133.069L336.227 131.607ZM202.469 134.688C227.214 153.692 216.8 169.497 198.419 188.425L178.489 208.592C170.863 216.196 163.116 227.292 151.572 228.663C136.814 230.415 125.783 218.703 116.865 208.667C112.565 246.018 133.85 280 168.326 293.632C171.737 273.703 193.116 263.783 211.731 267.025C222.795 268.952 230.026 275.713 237.476 283.555L279.528 326.046L307.741 297.096L272.41 261.952C265.581 255.204 256.938 248.374 251.937 240.156C238.832 218.622 260.194 182.417 280.072 192.031L280.703 192.318C268.411 156.715 241.672 134.435 202.469 134.688ZM354.41 341.387L326.958 368.598C332.926 375.707 340.164 382.095 346.798 388.6L471.253 512.418C474.146 515.086 477.393 517.806 481.115 519.228C496.789 524.529 512.339 507.209 504.601 492.543C502.34 488.258 498.761 484.791 495.358 481.42L354.41 341.387ZM254.328 359.219C247.239 362.886 240.629 368.33 234.224 373.077C204.344 395.225 177.366 420.723 151.137 447.014L137.592 460.953C132.51 466.331 125.899 472.593 123.57 479.736C117.577 498.124 137.064 519.94 154.744 521.567C171.041 521.483 181.249 507.465 192.042 497.027L218.952 470.586L272.063 411.69C277.197 405.427 283.339 398.99 287.045 391.783C281.986 384.241 263.104 363.811 255.307 359.147L254.328 359.219Z"/>
	<path transform="scale(0.3125 0.3125)" d="M158.539 504.481C137.317 506.514 132.452 476.322 153.287 472.565C175.282 471.7 178.721 499.016 158.539 504.481Z"/>
	<path transform="scale(0.3125 0.3125)" d="M484.061 507.79C470.22 508.992 463.174 491.556 476.918 485.968C491.771 484.772 497.849 503.934 484.061 507.79Z"/>
</svg>
