<svg xmlns="http://www.w3.org/2000/svg" xmlns:xlink="http://www.w3.org/1999/xlink" width="40" zoomAndPan="magnify" viewBox="0 0 30 30.000001" height="40" preserveAspectRatio="xMidYMid meet" version="1.0"><defs><clipPath id="eeb25799bc"><path d="M 2 1 L 28 1 L 28 29.03125 L 2 29.03125 Z M 2 1 " clip-rule="nonzero"/></clipPath><clipPath id="52dc9854ec"><path d="M 10.644531 8.855469 L 19.355469 8.855469 L 19.355469 17.566406 L 10.644531 17.566406 Z M 10.644531 8.855469 " clip-rule="nonzero"/></clipPath><clipPath id="b2d1a13661"><path d="M 15 8.855469 C 12.59375 8.855469 10.644531 10.804688 10.644531 13.210938 C 10.644531 15.613281 12.59375 17.566406 15 17.566406 C 17.40625 17.566406 19.355469 15.613281 19.355469 13.210938 C 19.355469 10.804688 17.40625 8.855469 15 8.855469 " clip-rule="nonzero"/></clipPath></defs><path fill="#00ff21" d="M 14.960938 18.902344 C 14.605469 18.902344 14.253906 18.867188 13.90625 18.796875 C 13.558594 18.726562 13.21875 18.625 12.890625 18.488281 C 12.5625 18.351562 12.25 18.183594 11.953125 17.984375 C 11.660156 17.785156 11.386719 17.5625 11.132812 17.308594 C 10.882812 17.054688 10.660156 16.78125 10.460938 16.484375 C 10.265625 16.1875 10.097656 15.875 9.960938 15.542969 C 9.824219 15.214844 9.722656 14.875 9.652344 14.523438 C 9.585938 14.171875 9.550781 13.820312 9.550781 13.460938 C 9.550781 13.105469 9.585938 12.75 9.652344 12.402344 C 9.722656 12.050781 9.824219 11.710938 9.960938 11.378906 C 10.097656 11.050781 10.265625 10.738281 10.460938 10.441406 C 10.660156 10.144531 10.882812 9.867188 11.132812 9.617188 C 11.386719 9.363281 11.660156 9.136719 11.953125 8.941406 C 12.25 8.742188 12.5625 8.574219 12.890625 8.4375 C 13.21875 8.300781 13.558594 8.195312 13.90625 8.128906 C 14.253906 8.058594 14.605469 8.023438 14.960938 8.023438 C 15.316406 8.023438 15.667969 8.058594 16.015625 8.128906 C 16.367188 8.195312 16.703125 8.300781 17.03125 8.4375 C 17.359375 8.574219 17.671875 8.742188 17.96875 8.941406 C 18.261719 9.136719 18.535156 9.363281 18.789062 9.617188 C 19.039062 9.867188 19.261719 10.144531 19.460938 10.441406 C 19.660156 10.738281 19.824219 11.050781 19.960938 11.378906 C 20.097656 11.710938 20.199219 12.050781 20.269531 12.402344 C 20.339844 12.75 20.375 13.105469 20.375 13.460938 C 20.371094 13.820312 20.335938 14.171875 20.269531 14.523438 C 20.199219 14.875 20.09375 15.214844 19.960938 15.542969 C 19.824219 15.871094 19.65625 16.1875 19.460938 16.484375 C 19.261719 16.78125 19.039062 17.054688 18.785156 17.308594 C 18.535156 17.558594 18.261719 17.785156 17.964844 17.984375 C 17.671875 18.179688 17.359375 18.347656 17.03125 18.484375 C 16.703125 18.621094 16.363281 18.726562 16.015625 18.796875 C 15.667969 18.867188 15.316406 18.902344 14.960938 18.902344 Z M 14.960938 10.742188 C 14.601562 10.742188 14.257812 10.8125 13.925781 10.949219 C 13.59375 11.085938 13.300781 11.285156 13.046875 11.539062 C 12.792969 11.792969 12.597656 12.089844 12.460938 12.421875 C 12.324219 12.753906 12.253906 13.101562 12.253906 13.460938 C 12.253906 13.824219 12.324219 14.167969 12.460938 14.503906 C 12.597656 14.835938 12.792969 15.128906 13.046875 15.386719 C 13.300781 15.640625 13.59375 15.835938 13.925781 15.976562 C 14.257812 16.113281 14.601562 16.183594 14.960938 16.183594 C 15.320312 16.183594 15.664062 16.113281 15.996094 15.976562 C 16.328125 15.835938 16.621094 15.640625 16.875 15.386719 C 17.128906 15.128906 17.324219 14.835938 17.460938 14.503906 C 17.597656 14.167969 17.667969 13.824219 17.667969 13.460938 C 17.667969 13.101562 17.597656 12.753906 17.460938 12.421875 C 17.324219 12.089844 17.128906 11.792969 16.875 11.539062 C 16.621094 11.285156 16.328125 11.085938 15.996094 10.949219 C 15.664062 10.8125 15.320312 10.742188 14.960938 10.742188 Z M 14.960938 10.742188 " fill-opacity="1" fill-rule="nonzero"/><g clip-path="url(#eeb25799bc)"><path fill="#00ff21" d="M 14.960938 29.078125 C 13.839844 29.078125 12.882812 28.683594 12.09375 27.886719 L 6.347656 22.117188 C 5.785156 21.546875 5.28125 20.929688 4.835938 20.261719 C 4.390625 19.59375 4.015625 18.890625 3.710938 18.144531 C 3.40625 17.402344 3.171875 16.640625 3.019531 15.851562 C 2.863281 15.0625 2.785156 14.265625 2.785156 13.464844 C 2.785156 12.660156 2.863281 11.863281 3.019531 11.074219 C 3.175781 10.289062 3.40625 9.523438 3.710938 8.78125 C 4.015625 8.039062 4.390625 7.332031 4.835938 6.664062 C 5.28125 5.996094 5.785156 5.378906 6.351562 4.808594 C 6.914062 4.242188 7.53125 3.734375 8.195312 3.289062 C 8.859375 2.839844 9.5625 2.464844 10.300781 2.15625 C 11.039062 1.847656 11.800781 1.617188 12.585938 1.460938 C 13.371094 1.304688 14.160156 1.226562 14.960938 1.226562 C 15.761719 1.226562 16.550781 1.304688 17.335938 1.460938 C 18.121094 1.617188 18.882812 1.847656 19.621094 2.15625 C 20.359375 2.464844 21.0625 2.839844 21.726562 3.289062 C 22.390625 3.734375 23.003906 4.242188 23.570312 4.808594 C 24.136719 5.378906 24.640625 5.996094 25.085938 6.664062 C 25.527344 7.332031 25.902344 8.039062 26.210938 8.78125 C 26.515625 9.523438 26.746094 10.289062 26.902344 11.074219 C 27.058594 11.863281 27.136719 12.660156 27.136719 13.464844 C 27.136719 14.265625 27.058594 15.0625 26.902344 15.851562 C 26.746094 16.640625 26.515625 17.402344 26.210938 18.144531 C 25.90625 18.890625 25.53125 19.59375 25.085938 20.261719 C 24.640625 20.929688 24.136719 21.546875 23.570312 22.117188 L 17.832031 27.886719 C 17.039062 28.683594 16.082031 29.078125 14.960938 29.078125 Z M 14.960938 3.949219 C 14.023438 3.949219 13.109375 4.085938 12.210938 4.355469 C 11.316406 4.628906 10.476562 5.027344 9.699219 5.550781 C 8.917969 6.074219 8.234375 6.699219 7.640625 7.425781 C 7.042969 8.152344 6.566406 8.953125 6.210938 9.820312 C 5.851562 10.691406 5.625 11.59375 5.535156 12.53125 C 5.441406 13.46875 5.488281 14.398438 5.671875 15.320312 C 5.855469 16.242188 6.164062 17.121094 6.609375 17.949219 C 7.050781 18.78125 7.601562 19.527344 8.265625 20.195312 L 14.007812 25.964844 C 14.132812 26.089844 14.277344 26.1875 14.445312 26.257812 C 14.609375 26.324219 14.78125 26.359375 14.960938 26.359375 C 15.140625 26.359375 15.3125 26.324219 15.480469 26.257812 C 15.644531 26.1875 15.789062 26.089844 15.917969 25.964844 L 21.660156 20.195312 C 22.320312 19.527344 22.875 18.78125 23.316406 17.949219 C 23.757812 17.121094 24.070312 16.242188 24.25 15.320312 C 24.433594 14.398438 24.480469 13.46875 24.386719 12.53125 C 24.296875 11.59375 24.070312 10.691406 23.714844 9.820312 C 23.355469 8.953125 22.878906 8.152344 22.285156 7.425781 C 21.6875 6.699219 21.003906 6.074219 20.222656 5.550781 C 19.445312 5.027344 18.605469 4.628906 17.710938 4.355469 C 16.8125 4.085938 15.898438 3.949219 14.960938 3.949219 Z M 22.613281 21.15625 Z M 22.613281 21.15625 " fill-opacity="1" fill-rule="nonzero"/></g><g clip-path="url(#52dc9854ec)"><g clip-path="url(#b2d1a13661)"><path fill="#00ff21" d="M 10.644531 8.855469 L 19.355469 8.855469 L 19.355469 17.566406 L 10.644531 17.566406 Z M 10.644531 8.855469 " fill-opacity="1" fill-rule="nonzero"/></g></g></svg>